<svg width="688" height="363" version="1.1" xmlns="http://www.w3.org/2000/svg"><path fill="rgb(0, 207, 191 )" stroke="rgb(0, 207, 191)" stroke-width="1" opacity="0.4666666666666667" d="M 626 0 L 629 1.5 Q 607.2 48.2 569 78.5 L 570.5 79 L 604 47.5 L 633.5 0 L 637 0.5 L 622.5 29 L 621 31.5 L 620 34 L 617 35.5 L 614.5 40 L 613 41.5 L 579.5 76 L 540 104 L 541.5 106 Q 579.3 85.3 607 54.5 Q 628.1 31.9 639 0 L 643 2.5 L 620 47 L 614 49.5 L 613 51.5 L 611 55.5 L 610.5 57 L 590.5 75 L 589 76.5 L 570 90 L 568.5 92 L 482 139.5 L 484.5 140 Q 549.5 117.2 596 77 L 602 69.5 Q 631.5 41.8 646 0 L 650 0.5 L 628 47 L 623 49.5 L 624 51.5 L 619 55 L 617.5 57 L 615.5 61 L 614 61.5 L 612.5 65 L 605 70.5 L 599.5 77 Q 537.6 130.6 448 156.5 L 451.5 157 Q 549 135 608 74.5 Q 637.9 44.5 652 0 L 656 0.5 L 638 43 L 636 46.5 L 631 49.5 L 632 51.5 L 630 55 L 627 55.5 L 628 57.5 L 626 61 L 621 63.5 L 621 65.5 L 617.5 71 L 615.5 70 L 615 72 L 611 74.5 L 599.5 87 Q 567.6 116.6 524.5 135 L 422 169.5 L 425.5 170 L 444 166 L 442.5 164 L 442.5 163 L 448.5 165 L 464.5 160 L 466.5 160 L 479.5 156 L 481.5 156 Q 556.2 137 603 91 Q 640.1 55.4 658.5 0 L 661 4 L 659 5.5 L 659 7.5 L 640 53 L 638 55.5 L 636.5 55 L 635 55.5 L 636 58.5 L 633.5 62 L 631.5 61 L 632 62.5 L 629.5 67 L 628 69.5 L 624 76 L 622 77.5 L 618 77.5 L 615 81.5 L 615 83.5 L 612.5 87 L 611 88.5 L 609.5 88 Q 546.7 151.7 439 170.5 L 443 172.5 L 448.5 174 L 452 172.5 L 450.5 170 L 462.5 172 L 472.5 168 L 474.5 169 L 487.5 164 L 489.5 165 Q 569.8 142.3 617 86.5 Q 649.7 52.5 663 0 L 667 1.5 L 668 1.5 L 671.5 0 L 671 1.5 L 671.5 5 L 673 0 L 677 1.5 L 678 1.5 L 681 0 L 681.5 3 L 682 0 L 685 3.5 L 686 3.5 L 687.5 0 L 688 7.5 L 681 33.5 L 682 35.5 L 674 59.5 L 673 62.5 L 660 92.5 L 599.5 161 Q 514.6 247.1 340.5 244 L 335.5 243 L 318 275.5 L 299 352.5 L 300 357.5 L 297.5 363 L 296 360.5 L 297 353 L 274.5 361 L 272.5 361 L 218.5 363 L 150.5 356 L 50.5 335 L 45.5 336 L 42.5 335 L 24 344.5 L 17 363 L 13.5 362 L 10 363 L 9.5 358 L 9 363 L 6 357.5 L 5 357.5 L 2 363 Q 1 328.2 19.5 312 Q 29.4 301.4 52.5 304 L 115.5 319 Q 202.5 313.1 278 297 L 272.5 280 Q 197.1 302.6 110.5 314 L 44.5 297 L 42.5 298 L 39.5 297 L 13 311.5 Q 0.6 329.6 0.5 360 L 0 331 L 2 327.5 L 18.5 302 Q 28.3 291.8 50.5 294 L 116.5 311 L 272 278 L 270 263 L 266.5 262 L 143.5 302 L 110.5 306 L 54.5 288 L 34.5 288 L 10 302.5 L 0.5 324 L 0 313 L 2 310.5 L 10 298 L 13.5 296 L 36.5 284 L 38.5 285 L 44.5 284 L 99.5 301 L 122.5 303 Q 201.2 285.2 270 257.5 L 277.5 243 L 296 234.5 L 294.5 234 L 264.5 243 L 156.5 290 Q 140.1 300.1 111.5 298 L 60.5 280 L 36.5 278 Q 16.3 281.8 6 295.5 L 0.5 306 L 0 299.5 L 13.5 284 Q 25.8 273.8 49.5 275 L 100.5 293 L 124.5 295 Q 199.9 276.4 259.5 242 L 313.5 226 L 397 179.5 L 394.5 179 Q 337.5 206.5 268.5 222 L 157.5 282 Q 141.6 292.1 113.5 290 L 59.5 270 L 39.5 268 L 7 282 L 0.5 291 L 0 286.5 L 7.5 278 Q 21.2 264.7 48.5 265 L 103.5 285 L 129.5 287 L 181.5 268 L 272.5 217 Q 363.7 195.7 438 157.5 L 436.5 157 L 382.5 174 L 277.5 198 L 185.5 261 L 129.5 283 L 127.5 282 L 122.5 283 Q 84.5 277 57.5 260 L 35.5 259 Q 12.3 262.3 0.5 277 L 0 273.5 Q 15 255 49.5 256 L 103.5 277 L 126.5 280 L 126.5 279 L 122 278.5 L 130.5 278 L 133.5 279 L 188.5 256 L 277.5 195 L 370.5 173 L 372.5 173 L 468 143.5 L 464.5 143 L 399.5 158 L 287.5 174 L 258.5 190 L 184.5 254 Q 160.7 272.2 121.5 275 L 56.5 250 L 37.5 249 Q 13.9 251.9 0.5 265 L 0 261 Q 15.7 245.5 48.5 246 L 109.5 270 L 132.5 272 L 132.5 271 L 121 269 L 124 268.5 L 118.5 266 L 116.5 267 L 61.5 242 L 31.5 240 L 0.5 253 L 0 250.5 Q 16 237 44.5 236 L 63.5 240 L 110.5 262 L 136.5 264 Q 188.9 249.9 220 214.5 L 258.5 169 Q 286.4 139.4 347.5 143 L 355.5 144 Q 441.8 143.3 508.5 123 Q 559.4 92.4 596 47.5 L 626 0 Z M 665 2 L 666 9 L 667 6 L 665 2 Z M 675 2 L 676 8 L 677 5 L 675 2 Z M 681 3 L 679 5 L 680 10 L 681 6 L 681 3 Z M 683 5 L 684 12 L 685 7 L 683 5 Z M 671 6 L 669 8 L 670 12 L 671 9 L 671 6 Z M 665 9 L 663 11 L 664 15 L 665 13 L 665 9 Z M 675 9 L 673 12 L 674 15 L 675 13 L 675 9 Z M 677 11 L 678 18 L 679 14 L 677 11 Z M 669 13 L 667 15 L 668 19 L 669 16 L 669 13 Z M 681 13 L 682 21 L 683 16 L 681 13 Z M 663 15 L 640 65 L 638 66 L 632 76 L 630 77 L 620 91 L 613 94 L 607 102 L 601 108 Q 567 139 520 158 L 467 174 L 401 184 L 385 190 L 383 193 L 448 185 L 450 185 Q 541 170 596 119 Q 642 81 663 19 L 663 15 Z M 673 17 L 671 20 L 672 23 L 673 20 L 673 17 Z M 667 20 L 665 22 L 666 26 L 667 23 L 667 20 Z M 675 20 L 676 25 L 677 21 L 675 20 Z M 681 21 L 679 24 L 681 25 L 681 21 Z M 671 24 L 669 26 L 670 30 L 671 28 L 671 24 Z M 680 25 L 679 30 L 680 30 L 680 25 Z M 665 26 L 637 82 L 634 83 L 630 91 L 626 94 L 624 97 L 621 99 L 613 107 Q 574 147 517 170 Q 458 193 380 195 L 371 202 L 369 204 L 377 202 L 382 203 Q 529 199 604 122 Q 645 87 665 30 L 665 26 Z M 674 27 L 673 30 L 674 34 L 675 30 L 674 27 Z M 679 30 L 678 34 L 679 34 L 679 30 Z M 669 31 L 667 34 L 668 37 L 669 35 L 669 31 Z M 673 35 L 671 38 L 672 41 L 673 38 L 673 35 Z M 678 35 L 677 38 L 678 38 L 678 35 Z M 667 38 L 665 40 L 666 44 L 667 41 L 667 38 Z M 677 38 L 676 42 L 677 42 L 677 38 Z M 671 42 L 669 44 L 670 48 L 671 45 L 671 42 Z M 676 42 L 675 46 L 676 46 L 676 42 Z M 665 44 L 638 91 L 636 92 L 637 95 Q 655 75 665 47 L 665 44 Z M 675 46 L 673 48 L 674 53 L 675 50 L 675 46 Z M 669 48 L 667 51 L 668 54 L 669 52 L 669 48 Z M 673 53 L 658 86 L 654 92 L 651 94 L 649 95 L 645 102 L 643 106 L 637 110 L 635 114 L 633 115 L 629 122 L 622 128 L 619 132 Q 537 229 360 231 L 357 230 L 355 231 L 344 230 L 341 237 L 339 238 L 376 241 Q 520 235 596 161 L 656 94 L 673 57 L 673 53 Z M 667 54 L 650 86 L 646 89 L 644 94 L 640 97 L 634 107 L 630 109 L 630 111 L 628 114 L 624 119 L 621 121 L 619 123 Q 553 197 431 214 L 429 214 L 363 219 L 353 218 L 346 228 L 351 227 L 354 228 Q 520 230 601 146 Q 642 110 667 58 L 667 54 Z M 568 79 L 565 83 L 569 80 L 568 79 Z M 634 95 L 632 97 L 630 102 L 628 103 L 626 107 L 620 112 L 618 115 L 616 114 L 615 117 L 614 116 L 613 118 Q 571 160 510 184 L 460 198 Q 417 207 366 206 L 361 210 L 356 216 Q 515 218 596 140 L 636 97 L 634 95 Z M 489 131 L 425 142 L 304 149 Q 277 154 262 170 L 224 215 Q 190 253 132 269 L 133 271 Q 188 258 221 222 L 224 220 L 234 209 Q 264 168 329 163 L 334 164 L 362 159 L 366 160 L 377 158 L 379 158 L 450 144 L 452 144 L 458 142 L 461 140 L 464 141 L 491 132 L 489 131 Z M 431 171 L 429 172 L 429 174 L 426 172 L 403 180 L 402 182 L 438 175 L 440 176 L 442 174 L 431 171 Z M 355 208 L 349 211 L 347 215 L 350 216 L 356 209 L 355 208 Z M 337 218 L 333 220 L 328 226 L 335 228 L 340 221 L 337 218 Z M 345 218 L 341 223 L 342 224 L 347 220 L 345 218 Z M 324 224 L 322 225 L 321 227 L 326 226 L 324 224 Z M 316 229 L 314 230 L 311 237 L 312 239 L 314 238 L 320 240 L 323 232 L 316 229 Z M 333 230 L 327 231 L 324 235 L 325 238 L 334 231 L 333 230 Z M 339 230 L 334 237 L 335 239 L 340 232 L 339 230 Z M 307 231 L 299 236 L 297 239 L 302 238 L 305 239 L 310 232 L 307 231 Z M 328 238 L 331 240 L 328 238 Z M 339 238 L 338 241 L 341 241 L 339 240 L 339 238 Z M 293 241 L 291 250 L 292 252 L 300 249 L 302 249 L 305 248 L 304 244 L 306 244 L 306 243 L 293 241 Z M 288 242 L 278 247 L 275 251 L 275 253 L 273 257 L 286 254 L 290 244 L 288 242 Z M 325 242 L 323 246 L 328 248 L 329 244 L 325 242 Z M 312 243 L 310 246 L 316 244 L 312 243 Z M 322 243 L 322 245 L 324 244 L 322 243 Z M 318 245 L 307 250 L 309 266 L 314 263 L 319 250 L 318 245 Z M 325 247 L 322 251 L 320 253 L 322 256 L 326 251 L 325 247 Z M 303 251 L 295 254 L 293 254 L 290 255 L 294 270 L 293 270 L 293 271 L 297 269 L 299 270 L 305 267 L 304 264 L 305 252 L 303 251 Z M 286 256 L 272 261 L 274 276 L 285 273 L 287 274 L 290 272 L 288 257 L 286 256 Z M 323 258 L 320 262 L 323 262 L 324 260 L 323 258 Z M 320 262 L 320 268 L 322 265 L 322 262 L 321 264 L 320 262 Z M 315 265 L 308 270 L 310 283 L 317 268 L 315 265 Z M 303 271 L 297 274 L 295 276 L 293 276 L 295 286 L 297 287 L 296 290 L 307 285 L 306 272 L 303 271 Z M 288 276 L 280 279 L 276 281 L 282 296 L 294 292 L 291 281 L 288 276 Z M 312 283 L 313 287 L 314 287 L 312 283 Z M 309 286 L 310 290 L 311 287 L 309 286 Z M 313 288 L 312 291 L 313 291 L 313 288 Z M 306 289 L 297 293 L 300 307 L 304 306 L 308 301 L 307 298 L 306 289 Z M 294 294 L 282 299 L 289 313 L 298 310 L 294 294 Z M 278 299 Q 206 316 124 322 L 97 320 L 47 306 L 22 314 L 6 345 L 7 356 Q 7 335 18 325 L 42 313 L 114 328 L 229 324 L 286 314 L 280 301 L 278 299 Z M 306 307 L 303 310 L 306 317 L 307 312 L 306 307 Z M 303 312 L 303 320 L 305 319 L 303 317 L 303 312 Z M 297 313 L 289 317 L 294 330 L 301 326 L 300 314 L 299 314 L 297 313 Z M 40 316 L 25 322 L 10 349 L 11 358 L 22 332 L 39 323 L 67 325 L 114 337 L 204 342 Q 257 346 292 332 L 287 317 L 283 319 L 281 318 L 250 325 L 142 330 L 108 330 Q 79 317 40 316 Z M 38 326 L 29 330 L 14 354 L 15 359 L 22 343 L 42 332 L 63 333 L 157 354 L 215 360 Q 269 367 296 348 L 293 334 Q 271 345 239 345 L 233 344 L 230 345 L 146 342 L 144 342 L 120 339 L 115 340 L 58 326 L 38 326 Z M 302 330 L 301 334 L 302 334 L 302 330 Z M 297 334 L 296 337 L 297 337 L 297 334 Z M 301 336 L 298 343 L 299 344 L 301 339 L 301 336 Z "></path><path fill="rgb(0, 207, 191 )" stroke="rgb(0, 207, 191 )" stroke-width="1" opacity="0.4666666666666667" d="M 473.5 163 L 477 164.5 L 475.5 165 L 473.5 163 Z "></path><path fill="rgb(182,238,245)" stroke="rgb(0, 207, 191 )" stroke-width="1" opacity="0.4666666666666667" d="M 115.5 277 L 118 277.5 L 115.5 278 L 115.5 277 Z "></path><path fill="rgb(182,238,245)" stroke="rgb(182,238,245)" stroke-width="0.2" opacity="0.4666666666666667" d="M 47.5 339 L 131 362.5 L 121.5 363 Q 90.1 345.9 43.5 344 L 26 353.5 L 22 363 L 19 360.5 L 29.5 346 L 47.5 339 Z "></path><path fill="rgb(0,0,0)" stroke="rgb(0,0,0)" stroke-width="1" opacity="0" d="M 0 0 L 626 1.5 Q 604.2 47.2 566.5 77 Q 538.3 108.8 496.5 127 Q 430 143 348.5 144 L 336.5 143 Q 281 142 256 171.5 L 211.5 223 Q 181 259 119.5 264 L 63.5 240 L 40.5 236 Q 15.1 237.6 0.5 250 L 0 0 Z M 474 163 L 476 165 L 477 165 L 474 163 Z "></path><path fill="rgb(0,0,0)" stroke="rgb(0,0,0)" stroke-width="1" opacity="0" d="M 629 0 L 633 0.5 Q 615.3 42.3 582.5 69 L 562.5 85 L 567.5 79 L 597 50.5 Q 618.7 30.3 629 0 Z "></path><path fill="rgb(0,0,0)" stroke="rgb(0,0,0)" stroke-width="1" opacity="0" d="M 637.5 0 L 639 2.5 Q 621.2 45.2 588.5 73 L 535.5 109 L 535.5 108 L 540 106 L 541.5 104 Q 580 80 609 46.5 L 613 40 L 616 38.5 L 618.5 34 L 620 32.5 L 621 29 L 624 27.5 L 637.5 0 Z "></path><path fill="rgb(0,0,0)" stroke="rgb(0,0,0)" stroke-width="1" opacity="0" d="M 643 0 L 646 1.5 Q 629.9 42.7 602 71 L 594.5 77 Q 547.8 119.3 480.5 141 L 480.5 140 L 570 92 L 571.5 90 L 589 76.5 L 590.5 75 L 611 56.5 L 614 52.5 L 614 50.5 L 615.5 48 L 618 47.5 L 617.5 46 L 620 47 L 643 0 Z "></path><path fill="rgb(0,0,0)" stroke="rgb(0,0,0)" stroke-width="1" opacity="0" d="M 650.5 0 L 652 1.5 Q 633.2 53.7 595.5 87 Q 537.2 137.2 448.5 157 L 448.5 156 Q 543.1 130.1 605 71.5 L 611.5 64 L 614 63.5 L 614.5 61 L 618 58.5 L 617.5 57 L 620.5 55 L 624 50.5 L 623.5 49 L 628 47 L 650.5 0 Z "></path><path fill="rgb(0,0,0)" stroke="rgb(0,0,0)" stroke-width="1" opacity="0" d="M 656.5 0 L 658 0.5 Q 640 55.7 603 91 Q 555.4 137.2 480.5 157 L 478.5 156 L 465.5 161 L 463.5 160 L 448.5 165 L 444 164 L 440.5 166 L 422.5 170 L 422.5 169 L 539.5 128 Q 581.2 107.7 611 75.5 L 613.5 72 L 615 70.5 L 616.5 71 L 619 69.5 L 622 64.5 L 621.5 63 L 626 61 L 628 56.5 L 627.5 55 L 630 53.5 L 632 50.5 L 631.5 49 L 636 46.5 L 638 41.5 L 656.5 0 Z "></path><path fill="rgb(0,0,0)" stroke="rgb(0,0,0)" stroke-width="1" opacity="0" d="M 661 0 L 663 2.5 Q 642.5 71.5 592.5 111 Q 550.5 148 488.5 165 L 485.5 166 L 473.5 169 L 471.5 168 L 455.5 172 L 450.5 170 L 451.5 173 L 443 174 L 441.5 171 L 439 170.5 Q 546.7 151.7 609.5 88 L 611 88.5 L 612.5 87 L 616 82.5 L 618 78.5 L 619.5 76 L 622 77.5 L 624 73.5 L 628 67 L 631 65.5 L 632 62.5 L 631.5 61 L 633.5 62 L 636 56.5 L 635.5 55 L 637.5 56 L 638 53 L 640 51.5 L 659 7.5 L 659 5.5 L 661 0 Z "></path><path fill="rgb(0,0,0)" stroke="rgb(0,0,0)" stroke-width="1" opacity="0" d="M 667.5 0 L 668 1.5 Q 648.6 77.1 595.5 119 Q 540.5 170 449.5 185 L 447.5 185 L 382.5 193 L 384.5 190 L 400.5 184 L 466.5 174 L 519.5 158 Q 566.6 138.8 601 108 L 606.5 102 L 613 94 L 620 90.5 L 630 77 L 632 75.5 L 638 66 L 640 64.5 Q 658.7 38.9 665 2 L 667.5 0 Z "></path><path fill="rgb(0,0,0)" stroke="rgb(0,0,0)" stroke-width="1" opacity="0" d="M 672.5 0 L 673 1.5 L 671.5 5 L 671 1.5 L 672.5 0 Z "></path><path fill="rgb(0,0,0)" stroke="rgb(0,0,0)" stroke-width="1" opacity="0" d="M 677.5 0 L 678 1.5 L 675.5 8 L 675 2 L 677.5 0 Z "></path><path fill="rgb(0,0,0)" stroke="rgb(0,0,0)" stroke-width="1" opacity="0" d="M 681.5 0 L 682 2.5 L 679.5 10 L 679 4.5 L 681.5 0 Z "></path><path fill="rgb(0,0,0)" stroke="rgb(0,0,0)" stroke-width="1" opacity="0" d="M 685 0 L 687 0.5 L 685.5 4 L 685 0 Z "></path><path fill="rgb(0,0,0)" stroke="rgb(0,0,0)" stroke-width="1" opacity="0" d="M 683 5 L 685 6.5 L 683.5 12 L 683 5 Z "></path><path fill="rgb(0,0,0)" stroke="rgb(0,0,0)" stroke-width="1" opacity="0" d="M 670.5 6 L 671 8.5 L 669.5 12 L 669 7.5 L 670.5 6 Z "></path><path fill="rgb(0,0,0)" stroke="rgb(0,0,0)" stroke-width="1" opacity="0" d="M 687.5 8 L 688 363 L 298 362.5 L 300 353.5 L 299 347.5 L 318 275.5 L 335.5 243 L 379.5 244 Q 549.8 234.3 628 132.5 Q 659 104 675 60.5 L 675 58.5 L 682 34.5 L 682 32.5 L 687.5 8 Z "></path><path fill="rgb(0,0,0)" stroke="rgb(0,0,0)" stroke-width="1" opacity="0" d="M 674.5 9 L 675 12.5 L 673.5 15 L 673 11.5 L 674.5 9 Z "></path><path fill="rgb(0,0,0)" stroke="rgb(0,0,0)" stroke-width="1" opacity="0" d="M 677 11 L 679 13.5 L 677.5 18 L 677 11 Z "></path><path fill="rgb(0,0,0)" stroke="rgb(0,0,0)" stroke-width="1" opacity="0" d="M 667.5 12 L 669 15.5 L 667.5 19 L 667 14.5 L 667.5 12 Z "></path><path fill="rgb(0,0,0)" stroke="rgb(0,0,0)" stroke-width="1" opacity="0" d="M 681 13 L 683 15.5 L 678.5 34 L 678 30.5 L 680 24.5 L 679 22.5 L 681 13 Z "></path><path fill="rgb(0,0,0)" stroke="rgb(0,0,0)" stroke-width="1" opacity="0" d="M 672.5 17 L 673 19.5 L 671.5 23 L 671 19.5 L 672.5 17 Z "></path><path fill="rgb(0,0,0)" stroke="rgb(0,0,0)" stroke-width="1" opacity="0" d="M 666.5 20 L 667 22.5 Q 648 85 603.5 122 Q 529.2 199.2 381.5 203 L 376.5 202 L 369 204 L 370.5 202 L 379.5 195 Q 458.2 192.7 516.5 170 Q 573.5 146.8 613 107 L 620.5 99 L 624 97 L 626 93.5 L 630 91 L 634 83 L 637 81.5 Q 656.9 55.9 666.5 20 Z "></path><path fill="rgb(0,0,0)" stroke="rgb(0,0,0)" stroke-width="1" opacity="0" d="M 675 20 L 677 20.5 L 675.5 25 L 675 20 Z "></path><path fill="rgb(0,0,0)" stroke="rgb(0,0,0)" stroke-width="1" opacity="0" d="M 670.5 24 L 671 27.5 L 669.5 30 L 669 25.5 L 670.5 24 Z "></path><path fill="rgb(0,0,0)" stroke="rgb(0,0,0)" stroke-width="1" opacity="0" d="M 673.5 27 L 675 29.5 L 673.5 34 L 673 29.5 L 673.5 27 Z "></path><path fill="rgb(0,0,0)" stroke="rgb(0,0,0)" stroke-width="1" opacity="0" d="M 668.5 31 L 669 34.5 L 667.5 37 L 667 33.5 L 668.5 31 Z "></path><path fill="rgb(0,0,0)" stroke="rgb(0,0,0)" stroke-width="1" opacity="0" d="M 672.5 35 L 673 37.5 L 671.5 41 L 671 37.5 L 672.5 35 Z "></path><path fill="rgb(0,0,0)" stroke="rgb(0,0,0)" stroke-width="1" opacity="0" d="M 677.5 35 L 678 37.5 Q 671.6 70.1 656 93.5 L 595.5 161 Q 519.9 235.4 375.5 241 L 339.5 238 L 339 240 L 341 240.5 L 338 241 L 339.5 237 L 341 233.5 L 343.5 230 L 354.5 231 L 356.5 230 L 359.5 231 Q 537.4 229.4 619 131.5 L 621.5 128 L 628.5 122 L 633 115 L 635 113.5 L 637 110 L 643 105.5 L 645 101.5 L 649 95 L 651 93.5 L 654 92 L 658 85.5 L 677.5 35 Z "></path><path fill="rgb(0,0,0)" stroke="rgb(0,0,0)" stroke-width="1" opacity="0" d="M 666.5 38 L 667 40.5 Q 643.5 102.5 595.5 140 Q 514.8 217.5 356 216 L 360.5 210 L 365.5 206 Q 417.2 206.7 459.5 198 L 509.5 184 Q 571.1 160.4 613 118 L 613.5 116 L 615 116.5 L 615.5 114 L 618 115 L 620 111.5 L 626 107 L 627.5 103 L 630 102 L 632 97 L 638 90.5 Q 657.3 69.3 666.5 38 Z "></path><path fill="rgb(0,0,0)" stroke="rgb(0,0,0)" stroke-width="1" opacity="0" d="M 670.5 42 L 671 44.5 L 655 82.5 L 600.5 146 Q 520.2 230.2 353.5 228 L 350.5 227 L 346 228 L 352.5 218 L 362.5 219 L 428.5 214 L 430.5 214 Q 553.2 196.5 619 123 L 620.5 121 L 624 119 L 628 113.5 L 630 110.5 L 629.5 109 L 633.5 107 L 640 97 L 644 93.5 L 646 89 L 650 85.5 L 670.5 42 Z "></path><path fill="rgb(0,0,0)" stroke="rgb(0,0,0)" stroke-width="1" opacity="0" d="M 488.5 131 L 491 131.5 L 463.5 141 L 461 140 L 457.5 142 L 451.5 144 L 449.5 144 L 378.5 158 L 376.5 158 L 365.5 160 L 361.5 159 L 333.5 164 L 328.5 163 Q 263.6 168.1 234 208.5 L 223.5 220 L 220.5 222 Q 187.2 264.2 119.5 272 L 58.5 248 L 34.5 246 L 0 261 L 1.5 252 Q 19.4 237.4 54.5 240 L 117.5 267 L 119.5 266 L 124 268.5 L 121 269 L 133 271 L 132 268.5 Q 189.9 253.4 224 214.5 L 261.5 170 Q 277.1 154.1 303.5 149 L 424.5 142 L 488.5 131 Z "></path><path fill="rgb(0,0,0)" stroke="rgb(0,0,0)" stroke-width="1" opacity="0" d="M 468.5 142 L 470 142.5 L 371.5 174 L 369.5 174 L 277.5 195 L 188.5 256 L 131.5 279 L 122.5 278 L 122.5 279 L 127 279.5 L 117.5 280 L 59.5 258 L 36.5 256 Q 12.5 258.5 0.5 273 L 0 265.5 Q 15.9 247.9 50.5 249 L 106.5 272 L 132.5 275 L 184.5 254 L 258.5 190 L 287.5 174 L 399.5 158 L 468.5 142 Z M 116 277 L 116 278 L 118 278 L 116 277 Z "></path><path fill="rgb(0,0,0)" stroke="rgb(0,0,0)" stroke-width="1" opacity="0" d="M 436.5 157 L 438 157.5 L 349.5 195 L 265.5 220 L 151.5 281 Q 136.8 288.8 112.5 287 L 61.5 268 L 41.5 265 Q 16.3 266.8 4 281.5 L 0.5 286 L 0 277.5 Q 15 257 52.5 259 L 104.5 280 L 126.5 283 L 128.5 282 L 131.5 283 L 185.5 261 L 277.5 198 L 382.5 174 L 436.5 157 Z "></path><path fill="rgb(0,0,0)" stroke="rgb(0,0,0)" stroke-width="1" opacity="0" d="M 430.5 171 L 442 174 L 439.5 176 L 437.5 175 L 401.5 182 L 402.5 180 L 425.5 172 L 428.5 174 L 428.5 172 L 430.5 171 Z "></path><path fill="rgb(0,0,0)" stroke="rgb(0,0,0)" stroke-width="1" opacity="0" d="M 397.5 178 L 399 178.5 L 313.5 226 Q 231.2 247.2 164.5 284 Q 144.1 296.1 110.5 295 L 59.5 277 L 37.5 275 Q 14.8 278.3 4 293.5 L 0.5 299 L 0 291.5 L 7 282 Q 20 267.7 48.5 268 L 103.5 288 L 131.5 290 L 171.5 276 L 268.5 222 Q 339 206 397.5 178 Z "></path><path fill="rgb(0,0,0)" stroke="rgb(0,0,0)" stroke-width="1" opacity="0" d="M 354.5 208 L 356 208.5 L 349.5 216 L 347 214.5 L 349 211 L 354.5 208 Z "></path><path fill="rgb(0,0,0)" stroke="rgb(0,0,0)" stroke-width="1" opacity="0" d="M 336.5 218 L 340 220.5 L 334.5 228 L 328 225.5 L 332.5 220 L 336.5 218 Z "></path><path fill="rgb(0,0,0)" stroke="rgb(0,0,0)" stroke-width="1" opacity="0" d="M 344.5 218 L 347 219.5 L 340.5 225 L 341 223.5 L 344.5 218 Z "></path><path fill="rgb(0,0,0)" stroke="rgb(0,0,0)" stroke-width="1" opacity="0" d="M 323.5 224 L 326 225.5 L 320.5 227 L 321.5 225 L 323.5 224 Z "></path><path fill="rgb(0,0,0)" stroke="rgb(0,0,0)" stroke-width="1" opacity="0" d="M 315.5 229 L 323 231.5 L 319.5 240 L 313.5 238 L 311.5 239 L 311 236.5 L 313.5 230 L 315.5 229 Z "></path><path fill="rgb(0,0,0)" stroke="rgb(0,0,0)" stroke-width="1" opacity="0" d="M 332.5 230 L 334 230.5 L 324.5 238 L 324 234.5 L 326.5 231 L 332.5 230 Z "></path><path fill="rgb(0,0,0)" stroke="rgb(0,0,0)" stroke-width="1" opacity="0" d="M 338.5 230 L 340 231.5 L 334.5 239 L 334 236.5 L 338.5 230 Z "></path><path fill="rgb(0,0,0)" stroke="rgb(0,0,0)" stroke-width="1" opacity="0" d="M 306.5 231 L 310 231.5 L 304.5 239 L 301.5 238 L 297 239 L 298.5 236 L 306.5 231 Z "></path><path fill="rgb(0,0,0)" stroke="rgb(0,0,0)" stroke-width="1" opacity="0" d="M 294.5 234 L 296 234.5 L 273 247.5 L 268.5 259 L 153.5 296 L 110.5 303 L 58.5 286 L 39.5 284 L 37.5 285 L 35.5 285 L 12 296 L 10 299.5 L 2 313 L 0 306.5 L 13.5 288 Q 26.1 276.6 51.5 278 L 100.5 296 L 129.5 298 L 294.5 234 Z "></path><path fill="rgb(0,0,0)" stroke="rgb(0,0,0)" stroke-width="1" opacity="0" d="M 328 238 L 331 240 L 328 238 Z "></path><path fill="rgb(0,0,0)" stroke="rgb(0,0,0)" stroke-width="1" opacity="0" d="M 293 241 L 306 242.5 L 305.5 244 L 304 243.5 L 305 248 L 301.5 249 L 299.5 249 L 291.5 252 L 291 249.5 L 293 241 Z "></path><path fill="rgb(0,0,0)" stroke="rgb(0,0,0)" stroke-width="1" opacity="0" d="M 287.5 242 L 290 243.5 L 285.5 254 L 273 257 L 275 252.5 L 275 250.5 L 277.5 247 L 287.5 242 Z "></path><path fill="rgb(0,0,0)" stroke="rgb(0,0,0)" stroke-width="1" opacity="0" d="M 316.5 242 L 315.5 244 L 309.5 246 L 311.5 243 L 316.5 242 Z "></path><path fill="rgb(0,0,0)" stroke="rgb(0,0,0)" stroke-width="1" opacity="0" d="M 325 242 L 329 243.5 L 321.5 256 L 320 253 L 322 250.5 L 324.5 247 L 325.5 249 L 325.5 246 L 322 244.5 L 323.5 243 L 325 243.5 L 325 242 Z "></path><path fill="rgb(0,0,0)" stroke="rgb(0,0,0)" stroke-width="1" opacity="0" d="M 317.5 245 L 319 249.5 L 313.5 263 L 308.5 266 L 307 250 L 317.5 245 Z "></path><path fill="rgb(0,0,0)" stroke="rgb(0,0,0)" stroke-width="1" opacity="0" d="M 302.5 251 L 305 252 L 304 263.5 L 305 266.5 L 298.5 270 L 296.5 269 L 292.5 271 L 292.5 270 L 294 269.5 L 290 255 L 292.5 254 L 294.5 254 L 302.5 251 Z "></path><path fill="rgb(0,0,0)" stroke="rgb(0,0,0)" stroke-width="1" opacity="0" d="M 285.5 256 L 288 257 L 290 271.5 L 286.5 274 L 284.5 273 L 274 276 L 272 261 L 285.5 256 Z "></path><path fill="rgb(0,0,0)" stroke="rgb(0,0,0)" stroke-width="1" opacity="0" d="M 322.5 258 L 324 259.5 L 319.5 268 L 319 262.5 L 322.5 258 Z "></path><path fill="rgb(0,0,0)" stroke="rgb(0,0,0)" stroke-width="1" opacity="0" d="M 266.5 262 L 270 263 L 272 278 Q 198 298.7 114.5 311 L 60.5 296 L 36.5 294 L 11 309.5 L 2 331 L 0 324.5 L 15.5 297 Q 27.3 284.8 54.5 288 L 99.5 304 L 125.5 306 L 266.5 262 Z "></path><path fill="rgb(0,0,0)" stroke="rgb(0,0,0)" stroke-width="1" opacity="0" d="M 314.5 265 L 317 267.5 L 309.5 283 L 308 269.5 L 314.5 265 Z "></path><path fill="rgb(0,0,0)" stroke="rgb(0,0,0)" stroke-width="1" opacity="0" d="M 302.5 271 L 306 272 L 307 284.5 L 296 290 L 297 286.5 L 295 286 L 293 275.5 L 295 275.5 L 296.5 274 L 302.5 271 Z "></path><path fill="rgb(0,0,0)" stroke="rgb(0,0,0)" stroke-width="1" opacity="0" d="M 287.5 276 L 291 280.5 L 294 292 L 281.5 296 L 276 280.5 L 279.5 279 L 287.5 276 Z "></path><path fill="rgb(0,0,0)" stroke="rgb(0,0,0)" stroke-width="1" opacity="0" d="M 272.5 280 L 278 297 Q 199 313.7 107.5 319 L 59.5 305 L 36.5 304 L 14 317.5 Q 1.2 334 2 363 L 0 360.5 Q -0.2 321.8 20.5 304 L 41.5 297 L 43.5 298 L 51.5 297 L 99.5 312 L 123.5 314 L 272.5 280 Z "></path><path fill="rgb(0,0,0)" stroke="rgb(0,0,0)" stroke-width="1" opacity="0" d="M 312 283 L 314 286.5 L 313 286.5 L 312 283 Z "></path><path fill="rgb(0,0,0)" stroke="rgb(0,0,0)" stroke-width="1" opacity="0" d="M 309 286 L 311 286.5 L 309.5 290 L 309 286 Z "></path><path fill="rgb(0,0,0)" stroke="rgb(0,0,0)" stroke-width="1" opacity="0" d="M 312.5 288 L 313 290.5 L 311.5 293 L 311 291.5 L 312.5 288 Z "></path><path fill="rgb(0,0,0)" stroke="rgb(0,0,0)" stroke-width="1" opacity="0" d="M 305.5 289 L 307 297.5 L 308 300.5 L 303.5 306 L 300 307 L 297 293 L 305.5 289 Z "></path><path fill="rgb(0,0,0)" stroke="rgb(0,0,0)" stroke-width="1" opacity="0" d="M 293.5 294 L 298 310 L 288.5 313 L 282 298.5 L 293.5 294 Z "></path><path fill="rgb(0,0,0)" stroke="rgb(0,0,0)" stroke-width="1" opacity="0" d="M 277.5 299 L 280 300.5 L 286 313.5 L 228.5 324 L 113.5 328 L 41.5 313 L 18 324.5 Q 7.5 335.5 6.5 356 L 6 344.5 L 21.5 314 L 46.5 306 L 96.5 320 L 123.5 322 Q 205.7 315.7 277.5 299 Z "></path><path fill="rgb(0,0,0)" stroke="rgb(0,0,0)" stroke-width="1" opacity="0" d="M 305.5 307 L 307 311.5 L 303.5 320 L 302 312.5 L 303 312.5 L 305 317 L 303 309.5 L 305.5 307 Z "></path><path fill="rgb(0,0,0)" stroke="rgb(0,0,0)" stroke-width="1" opacity="0" d="M 296.5 313 L 298.5 314 L 300 313.5 L 301 325.5 L 294 330 L 289 316.5 L 296.5 313 Z "></path><path fill="rgb(0,0,0)" stroke="rgb(0,0,0)" stroke-width="1" opacity="0" d="M 39.5 316 Q 79.1 317.4 107.5 330 L 141.5 330 L 249.5 325 L 280.5 318 L 282.5 319 L 286.5 317 L 292 331.5 Q 256.6 345.6 203.5 342 L 113.5 337 L 66.5 325 L 38.5 323 L 22 331.5 Q 10.8 342.3 9.5 363 L 9 358.5 Q 10.6 334.1 24.5 322 L 39.5 316 Z "></path><path fill="rgb(0,0,0)" stroke="rgb(0,0,0)" stroke-width="1" opacity="0" d="M 37.5 326 L 57.5 326 L 114.5 340 L 119.5 339 L 143.5 342 L 145.5 342 L 229.5 345 L 232.5 344 L 238.5 345 Q 270.6 344.6 292.5 334 L 296 347.5 Q 268.7 367.2 214.5 360 L 156.5 354 L 62.5 333 L 41.5 332 L 22 342.5 L 14.5 359 L 14 353.5 L 28.5 330 L 37.5 326 Z "></path><path fill="rgb(0,0,0)" stroke="rgb(0,0,0)" stroke-width="1" opacity="0" d="M 301.5 330 L 302 333.5 L 301 333.5 L 301.5 330 Z "></path><path fill="rgb(0,0,0)" stroke="rgb(0,0,0)" stroke-width="1" opacity="0" d="M 296.5 334 L 297 336.5 L 296 336.5 L 296.5 334 Z "></path><path fill="rgb(0,0,0)" stroke="rgb(0,0,0)" stroke-width="1" opacity="0" d="M 42.5 335 L 49.5 336 L 54.5 335 Q 127.5 357.5 218 362.5 L 131.5 363 L 47.5 339 L 24 351.5 L 19 363 L 17 361.5 L 28.5 340 L 42.5 335 Z "></path><path fill="rgb(0,0,0)" stroke="rgb(0,0,0)" stroke-width="1" opacity="0" d="M 300.5 336 L 301 338.5 L 298.5 344 L 298 342.5 L 300.5 336 Z "></path><path fill="rgb(0,0,0)" stroke="rgb(0,0,0)" stroke-width="1" opacity="0" d="M 43.5 344 Q 89.5 346 121 362.5 L 22 363 L 31.5 348 L 43.5 344 Z "></path><path fill="rgb(0,0,0)" stroke="rgb(0,0,0)" stroke-width="1" opacity="0" d="M 294.5 353 L 297 359.5 L 296 363 L 257 362.5 L 273.5 360 L 275.5 361 L 294.5 353 Z "></path><path fill="rgb(0,0,0)" stroke="rgb(0,0,0)" stroke-width="1" opacity="0" d="M 5.5 357 L 6 362.5 L 5 362.5 L 5.5 357 Z "></path></svg>