<svg width="512" height="512" version="1.1" xmlns="http://www.w3.org/2000/svg"><path fill="rgb(255,249,235)" stroke="rgb(255,249,235)" stroke-width="1" opacity="0.9725490196078431" d="M 230.5 217 L 241.5 217 L 254.5 226 L 259.5 226 L 270.5 218 Q 275.3 215.7 283.5 217 L 295.5 225 L 302.5 226 L 310.5 221 L 314 223.5 L 315 227.5 L 272 390 L 262 389.5 L 303 235.5 L 290.5 233 L 283.5 227 L 275.5 225 L 261.5 234 L 254.5 235 Q 244.4 233.1 239.5 226 L 233.5 225 L 218.5 234 L 209 235.5 L 251 389.5 L 241 390 L 199 224.5 L 203.5 221 Q 207 226.5 216.5 226 L 230.5 217 Z "></path><path fill="rgb(0,0,0)" stroke="rgb(0,0,0)" stroke-width="1" opacity="0" d="M 0 0 L 251 0.5 L 247 3.5 L 245 7.5 L 245 50.5 L 250.5 57 L 259.5 58 L 265 54.5 L 267 50.5 L 267 7.5 L 263.5 2 L 261 0.5 L 512 0 L 512 512 L 263.5 512 L 263.5 511 L 269.5 510 L 281 503 L 288 493.5 L 288 491 Q 305.7 493 312 482.5 Q 316.2 477.4 315 468 L 318.5 468 L 323 464.5 Q 326 461.5 326 455.5 L 325 451.5 L 321.5 447 Q 319.5 444.2 315 445 L 315 431.5 L 317.5 431 L 324 425.5 L 326 418.5 Q 325.1 411.9 320.5 409 L 315 406.5 L 315 391.5 L 326 366.5 Q 337.3 347.8 353.5 334 L 367 321.5 Q 385.5 301 396 272.5 L 403 242.5 L 404 220.5 L 403 219.5 L 403 206.5 L 402 205.5 L 401 193.5 L 392 165.5 Q 379.3 136.3 357.5 116 Q 337.8 97.2 310.5 86 L 281.5 78 L 266.5 77 L 265.5 76 L 246.5 76 L 245.5 77 L 235.5 77 L 216.5 81 L 192.5 90 Q 163.9 104.4 144 127.5 Q 125.2 148.7 115 178.5 L 109 205.5 L 108 225.5 L 109 226.5 L 109 241.5 L 111 248.5 L 111 254.5 L 120 282.5 Q 133.7 313.3 157.5 334 L 177 352.5 Q 188 365.5 195 382.5 L 198 391.5 L 198 407 Q 191.2 407.5 188 412.5 L 186 420.5 Q 187.5 427 192.5 430 L 198 431 L 198 445 L 193.5 445 L 189 448.5 Q 186 451.5 186 457.5 L 187 461.5 L 190.5 466 L 198 469.5 Q 197.6 483.4 206.5 488 Q 212.6 492.7 224 491 L 224 493.5 L 231 503 L 242.5 510 L 249 511.5 L 0 512 L 0 0 Z M 106 61 L 100 63 Q 95 66 94 73 L 96 79 L 128 109 L 135 109 L 142 103 Q 143 96 141 93 L 112 63 L 106 61 Z M 406 61 L 401 63 L 371 93 Q 369 96 370 103 L 378 109 L 387 108 L 416 79 L 418 73 L 416 67 Q 413 62 406 61 Z M 41 212 L 37 214 L 33 219 Q 32 227 35 231 L 42 234 L 83 234 L 86 233 L 91 226 Q 92 219 89 217 L 83 212 L 41 212 Z M 429 212 L 427 213 L 421 220 L 422 229 L 430 234 L 472 234 L 479 228 Q 481 219 477 216 L 472 212 L 429 212 Z M 128 337 L 126 338 L 96 368 L 94 374 L 96 380 L 102 384 Q 108 385 112 383 L 142 352 Q 144 343 140 341 Q 137 335 128 337 Z M 377 337 L 374 339 L 370 344 Q 369 350 371 354 L 403 384 Q 409 385 413 383 Q 417 380 418 374 L 416 368 L 387 338 Q 383 336 377 337 Z "></path><path fill="rgb(254,208,91)" stroke="rgb(254,208,91)" stroke-width="1" opacity="0.9882352941176471" d="M 251.5 0 Q 262 -2 265 3.5 L 267 7.5 L 267 50.5 L 263.5 56 Q 260.5 59 253.5 58 L 246 52.5 L 245 50.5 L 245 7.5 L 248.5 2 L 251.5 0 Z M 253 1 L 251 2 L 246 9 L 246 50 L 248 54 L 254 57 Q 260 58 263 55 L 266 51 L 266 9 L 264 5 Q 262 -1 253 1 Z "></path><path fill="rgb(254,208,91)" stroke="rgb(254,208,91)" stroke-width="1" opacity="0.9882352941176471" d="M 105.5 61 L 111.5 63 L 141 92.5 Q 143.3 95.7 142 102.5 L 134.5 109 L 127.5 109 L 96 78.5 L 94 72.5 Q 94.9 65.9 99.5 63 L 105.5 61 Z M 106 62 L 102 63 L 96 69 L 95 73 L 98 80 L 124 105 L 129 108 Q 135 109 138 106 L 141 102 Q 142 94 139 92 L 113 65 L 106 62 Z "></path><path fill="rgb(254,208,91)" stroke="rgb(254,208,91)" stroke-width="1" opacity="0.9882352941176471" d="M 405.5 61 Q 413 61.5 416 66.5 L 418 72.5 L 416 78.5 L 386.5 108 L 377.5 109 L 370 102.5 Q 368.7 95.7 371 92.5 L 400.5 63 L 405.5 61 Z M 407 62 L 400 65 L 371 95 Q 370 102 373 105 L 378 108 Q 386 109 389 105 L 414 80 L 417 73 L 416 69 L 411 63 L 407 62 Z "></path><path fill="rgb(254,208,91)" stroke="rgb(254,208,91)" stroke-width="1" opacity="0.9882352941176471" d="M 246.5 76 L 265.5 76 L 266.5 77 L 281.5 78 L 310.5 86 Q 340.3 98.2 361 119.5 Q 383.8 142.2 396 175.5 L 402 199.5 L 404 227.5 L 403 228.5 L 403 242.5 Q 400 249 400 258.5 L 391 284.5 Q 377.6 314.1 354.5 334 L 339 348.5 Q 323.1 365.8 316 391 L 314 390.5 Q 325.1 357.6 348.5 337 L 368 318.5 L 382 299.5 L 394 274.5 L 400 253.5 L 400 248.5 L 402 241.5 L 403 220.5 L 402 219.5 L 402 206.5 L 401 205.5 L 400 194.5 Q 396.2 176.3 389 161.5 Q 376 134 354.5 115 Q 334.8 96.7 307.5 86 L 281.5 79 L 266.5 78 L 265.5 77 L 246.5 77 L 245.5 78 L 236.5 78 L 220.5 81 L 197.5 89 L 171.5 104 L 151 121 L 134 142.5 L 120 168.5 L 115 182.5 L 111 199.5 L 109 225.5 L 110 226.5 L 110 240.5 L 111 241.5 L 112 253.5 L 121 281.5 Q 135.5 314.5 161.5 336 L 177 350.5 Q 191.4 367.1 199 390.5 L 197 391 Q 185.9 354.9 158.5 334 L 145 321.5 L 127 296.5 L 115 269.5 L 109 241.5 L 108 217.5 L 109 216.5 L 109 205.5 L 110 204.5 L 111 193.5 L 120 165.5 Q 134.8 132.8 160.5 111 Q 175.5 98 194.5 89 L 216.5 81 L 235.5 77 L 245.5 77 L 246.5 76 Z "></path><path fill="rgb(254,208,91)" stroke="rgb(254,208,91)" stroke-width="1" opacity="0.9882352941176471" d="M 40.5 212 L 82.5 212 L 89 216.5 Q 91.8 219.2 91 225.5 L 85.5 233 L 82.5 234 L 41.5 234 L 35 231 Q 31.9 227.4 33 218.5 L 36.5 214 L 40.5 212 Z M 41 213 L 38 215 L 34 220 Q 33 227 36 230 L 42 233 L 83 233 L 85 232 L 90 226 L 89 219 L 83 213 L 41 213 Z "></path><path fill="rgb(254,208,91)" stroke="rgb(254,208,91)" stroke-width="1" opacity="0.9882352941176471" d="M 428.5 212 L 471.5 212 L 477 215.5 Q 480.8 218.7 479 227.5 L 471.5 234 L 429.5 234 L 422 228.5 L 421 219.5 L 426.5 213 L 428.5 212 Z M 429 213 L 426 215 L 422 221 Q 421 227 424 230 L 430 233 L 471 233 L 475 231 L 478 227 L 477 218 L 472 213 L 429 213 Z "></path><path fill="rgb(254,208,91)" stroke="rgb(254,208,91)" stroke-width="1" opacity="0.9882352941176471" d="M 127.5 337 Q 137.3 335.3 140 340.5 Q 143.6 343.4 142 351.5 L 111.5 383 Q 108.3 385.3 101.5 384 L 96 379.5 L 94 373.5 L 96 367.5 L 125.5 338 L 127.5 337 Z M 128 338 L 125 340 L 98 367 L 95 374 L 97 379 L 103 383 Q 111 384 114 380 L 136 358 L 141 351 Q 142 344 139 342 L 135 338 L 128 338 Z "></path><path fill="rgb(254,208,91)" stroke="rgb(254,208,91)" stroke-width="1" opacity="0.9882352941176471" d="M 376.5 337 Q 383.3 335.7 386.5 338 L 416 367.5 L 418 373.5 Q 417.1 380.1 412.5 383 Q 409.3 385.3 402.5 384 L 371 353.5 Q 368.7 350.3 370 343.5 L 373.5 339 L 376.5 337 Z M 378 338 L 375 340 L 371 345 L 371 351 L 376 358 L 399 380 L 404 383 L 412 382 Q 416 379 417 374 L 414 367 L 388 340 Q 385 337 378 338 Z "></path><path fill="rgb(255,209,92)" stroke="rgb(255,209,92)" stroke-width="1" opacity="1" d="M 252.5 1 Q 261.5 -0.5 264 4.5 L 266 8.5 L 266 50.5 L 262.5 55 Q 259.8 57.8 253.5 57 L 248 54 L 246 49.5 L 246 8.5 L 250.5 2 L 252.5 1 Z "></path><path fill="rgb(255,209,92)" stroke="rgb(255,209,92)" stroke-width="1" opacity="1" d="M 105.5 62 L 112.5 65 L 139 91.5 Q 142.4 94.1 141 101.5 L 137.5 106 Q 135.2 109.2 128.5 108 L 123.5 105 L 98 79.5 L 95 72.5 L 96 68.5 L 101.5 63 L 105.5 62 Z "></path><path fill="rgb(255,209,92)" stroke="rgb(255,209,92)" stroke-width="1" opacity="1" d="M 406.5 62 L 410.5 63 L 416 68.5 L 417 72.5 L 414 79.5 L 388.5 105 Q 385.6 109.1 377.5 108 L 373 104.5 Q 369.6 101.9 371 94.5 L 399.5 65 L 406.5 62 Z "></path><path fill="rgb(255,209,92)" stroke="rgb(255,209,92)" stroke-width="1" opacity="1" d="M 246.5 77 L 265.5 77 L 266.5 78 L 281.5 79 L 307.5 86 Q 341.4 99.6 364 124.5 Q 383.1 144.9 394 173.5 L 400 194.5 L 400 199.5 L 402 206.5 L 403 227.5 L 402 228.5 L 402 241.5 L 401 242.5 L 400 253.5 L 396 268.5 L 389 286.5 Q 374.1 316.6 349.5 337 L 340 345.5 Q 322.6 363.4 315 390 L 272.5 390 L 272 388.5 L 315 225.5 L 312.5 222 L 310.5 221 L 302.5 226 L 298.5 226 L 283.5 217 L 273.5 217 L 259.5 226 L 254.5 226 L 241.5 217 L 230.5 217 Q 223.4 219.4 219.5 225 L 211.5 226 L 203.5 221 L 199 224.5 L 241 390 L 198.5 390 L 198 387.5 Q 186.5 355.5 162.5 336 L 145 319.5 Q 126.8 299.7 117 271.5 L 111 247.5 L 109 217.5 L 110 216.5 L 110 205.5 L 112 194.5 L 120 168.5 L 134 142.5 L 151 121 L 171.5 104 L 197.5 89 L 220.5 81 L 236.5 78 L 245.5 78 L 246.5 77 Z "></path><path fill="rgb(255,209,92)" stroke="rgb(255,209,92)" stroke-width="1" opacity="1" d="M 40.5 213 L 82.5 213 L 89 218.5 L 90 225.5 L 84.5 232 L 82.5 233 L 41.5 233 L 36 229.5 Q 32.6 226.9 34 219.5 L 37.5 215 L 40.5 213 Z "></path><path fill="rgb(255,209,92)" stroke="rgb(255,209,92)" stroke-width="1" opacity="1" d="M 428.5 213 L 471.5 213 L 477 217.5 L 478 226.5 L 474.5 231 L 470.5 233 L 429.5 233 L 424 230 Q 421.3 227.4 422 220.5 L 425.5 215 L 428.5 213 Z "></path><path fill="rgb(255,209,92)" stroke="rgb(255,209,92)" stroke-width="1" opacity="1" d="M 233.5 225 L 239.5 226 Q 243.4 231.6 250.5 234 L 257.5 235 Q 267.6 233.1 272.5 226 L 278.5 225 Q 286.3 227.2 290.5 233 L 303 235.5 L 287 293.5 L 283 312.5 L 281 316.5 L 278 331.5 L 276 335.5 L 272 354.5 L 270 358.5 L 266 377.5 L 261.5 390 L 251.5 390 L 250 388.5 L 209 235.5 L 218.5 234 L 233.5 225 Z "></path><path fill="rgb(255,209,92)" stroke="rgb(255,209,92)" stroke-width="1" opacity="1" d="M 127.5 338 L 134.5 338 L 139 341.5 Q 142.2 343.8 141 350.5 L 136 357.5 L 113.5 380 Q 110.6 384.1 102.5 383 L 97 378.5 L 95 373.5 L 98 366.5 L 124.5 340 L 127.5 338 Z "></path><path fill="rgb(255,209,92)" stroke="rgb(255,209,92)" stroke-width="1" opacity="1" d="M 377.5 338 Q 384.9 336.6 387.5 340 L 414 366.5 L 417 373.5 Q 415.8 379.3 411.5 382 L 403.5 383 L 398.5 380 L 376 357.5 L 371 350.5 L 371 344.5 L 374.5 340 L 377.5 338 Z "></path><path fill="rgb(58,82,100)" stroke="rgb(58,82,100)" stroke-width="1" opacity="0.9882352941176471" d="M 199.5 390 L 313.5 390 L 315 391.5 L 315 406.5 L 316.5 408 Q 322.1 408.5 324 412.5 L 326 420.5 Q 324.5 427 319.5 430 L 315 431 L 315 444.5 L 318.5 445 L 323 448.5 Q 326 451.5 326 457.5 L 325 461.5 L 321.5 466 Q 319.5 468.8 315 468 Q 315.9 482.6 306.5 488 Q 300.1 492.8 288 491 L 288 493.5 L 281 503 L 266.5 511 Q 259.8 513.3 249.5 512 L 242.5 510 L 231 503 L 224 493.5 L 224 491 Q 207 492.7 201 482.5 Q 197.1 478.4 198 469.5 L 196.5 468 L 193.5 468 L 189 464.5 Q 186 461.5 186 455.5 L 187 451.5 L 190.5 447 Q 192.8 444 198 445 L 198 431.5 L 194.5 431 L 188 425.5 L 186 418.5 Q 186.9 411.9 191.5 409 L 198 407 L 198 391.5 L 199.5 390 Z "></path></svg>