<?xml version="1.0" standalone="no"?>
<!DOCTYPE svg PUBLIC "-//W3C//DTD SVG 20010904//EN"
 "http://www.w3.org/TR/2001/REC-SVG-20010904/DTD/svg10.dtd">
<svg version="1.0" xmlns="http://www.w3.org/2000/svg"
 width="512.000000pt" height="512.000000pt" viewBox="0 0 512.000000 512.000000"
 preserveAspectRatio="xMidYMid meet">

    <style type="text/css">
  <![CDATA[
    .mi-svg {
        opacity: 0;
        transform-origin: center;
        animation: drawCheck 2.4s ease-in-out forwards;
    }


    @keyframes drawCheck {
            0% {
        opacity: 0;
        transform: scale(0.9);
    }
    100% {
        opacity: 1;
        transform: scale(1);
    }
}
 
  ]]>
</style>

<g transform="translate(0.000000,512.000000) scale(0.100000,-0.100000)"
fill="#ffffff" stroke="none">
<path d="M795 4938 c-28 -103 -43 -128 -77 -128 -10 0 -59 23 -109 52 l-91 51
-155 -156 -156 -155 51 -91 c54 -95 60 -117 39 -143 -9 -12 -184 -68 -213 -68
-2 0 -3 -100 -2 -222 l3 -222 100 -28 c97 -27 125 -44 125 -77 0 -8 -23 -55
-51 -104 l-51 -90 157 -157 157 -158 94 55 c88 50 96 53 121 41 20 -10 31 -26
41 -63 8 -27 20 -74 29 -102 l14 -53 223 0 222 0 28 104 c24 93 31 106 55 116
29 12 40 7 187 -81 l30 -18 156 157 157 157 -55 94 c-50 86 -54 97 -44 122 10
24 24 31 116 55 l104 28 0 73 0 73 240 0 240 0 0 -56 c0 -31 5 -75 12 -98 16
-55 99 -138 154 -154 59 -17 1369 -17 1428 0 55 16 138 99 154 154 7 23 12 67
12 99 l0 57 168 -3 168 -4 76 -37 c91 -45 147 -103 191 -196 l32 -67 0 -375 0
-375 -32 -67 c-44 -93 -100 -151 -191 -196 l-76 -37 -568 -3 -568 -3 0 57 c0
31 -5 75 -12 98 -16 55 -99 138 -154 154 -59 17 -1369 17 -1428 0 -55 -16
-138 -99 -154 -154 -7 -23 -12 -67 -12 -98 l0 -56 -543 0 c-342 0 -565 -4
-603 -11 -212 -38 -405 -231 -443 -443 -15 -79 -15 -773 0 -852 25 -143 138
-302 264 -374 109 -63 154 -72 348 -78 l177 -4 0 -55 c0 -31 5 -74 12 -97 16
-55 99 -138 154 -154 59 -17 1369 -17 1428 0 55 16 138 99 154 154 7 23 12 67
12 98 l0 56 323 -2 322 -3 3 -25 c19 -179 118 -380 256 -515 343 -339 896
-337 1237 4 343 343 343 898 -1 1241 -342 343 -892 345 -1236 5 -138 -135
-237 -336 -256 -515 l-3 -25 -322 -3 -323 -2 0 56 c0 31 -5 75 -12 98 -16 55
-99 138 -154 154 -59 17 -1369 17 -1428 0 -55 -16 -138 -99 -154 -154 -7 -23
-12 -67 -12 -99 l0 -57 -167 4 c-164 3 -169 4 -235 35 -93 44 -151 100 -196
191 l-37 76 0 416 0 416 37 76 c45 91 103 147 196 191 l67 32 568 3 567 3 0
-57 c0 -31 5 -75 12 -98 16 -55 99 -138 154 -154 59 -17 1369 -17 1428 0 55
16 138 99 154 154 7 23 12 66 12 97 l0 56 578 3 577 3 66 26 c96 37 148 70
213 135 61 61 112 146 142 234 17 50 19 91 19 440 0 350 -2 390 -19 440 -53
157 -153 274 -289 339 -104 50 -166 61 -344 61 l-143 0 0 56 c0 81 -18 129
-67 184 -75 83 -42 80 -811 80 -501 0 -685 -3 -716 -12 -55 -16 -138 -99 -154
-154 -7 -23 -12 -67 -12 -98 l0 -56 -240 0 -240 0 0 70 0 69 -42 11 c-142 37
-163 46 -176 73 -12 25 -9 33 41 121 l55 94 -157 156 -157 157 -88 -50 c-48
-28 -95 -51 -105 -51 -35 0 -52 27 -79 125 l-28 100 -221 3 -220 2 -28 -102z
m365 -130 c12 -40 23 -80 26 -88 2 -9 47 -33 101 -54 108 -43 93 -44 206 21
l48 27 69 -70 70 -69 -46 -80 -45 -79 29 -66 c17 -36 34 -78 39 -95 9 -27 17
-32 97 -54 l87 -24 -3 -100 -3 -101 -77 -21 c-43 -11 -81 -25 -86 -30 -5 -6
-15 -28 -22 -50 -7 -22 -24 -62 -37 -88 l-24 -48 45 -77 44 -77 -70 -71 -70
-71 -78 44 -78 44 -44 -22 c-23 -12 -65 -29 -93 -39 l-50 -16 -23 -75 c-13
-41 -25 -80 -27 -86 -3 -9 -33 -13 -103 -13 l-99 0 -24 87 c-22 79 -27 87 -54
96 -16 5 -59 22 -95 39 l-66 29 -79 -45 -80 -46 -69 70 -70 69 27 48 c65 113
64 99 22 204 -21 52 -39 96 -41 98 -2 2 -41 14 -86 26 l-83 22 -3 99 -3 100
90 23 c80 21 90 26 96 49 4 15 21 59 39 97 l33 71 -45 78 -45 78 71 70 70 71
79 -45 78 -46 45 23 c25 13 68 31 96 40 l50 16 24 90 24 89 98 0 97 0 21 -72z
m2895 -513 c25 -24 25 -26 25 -215 0 -189 0 -191 -25 -215 l-24 -25 -671 0
-671 0 -24 25 c-25 24 -25 26 -25 215 0 189 0 191 25 215 l24 25 671 0 671 0
24 -25z m-800 -1520 c25 -24 25 -26 25 -215 0 -189 0 -191 -25 -215 l-24 -25
-671 0 -671 0 -24 25 c-25 24 -25 26 -25 215 0 189 0 191 25 215 l24 25 671 0
671 0 24 -25z m1120 -1129 c113 -36 198 -89 290 -181 91 -91 144 -175 182
-290 23 -71 26 -96 26 -215 0 -119 -3 -144 -26 -215 -38 -115 -91 -199 -182
-290 -91 -91 -175 -144 -290 -182 -71 -23 -96 -26 -215 -26 -119 0 -144 3
-215 26 -115 38 -199 91 -290 182 -91 91 -144 175 -182 290 -23 71 -26 96 -26
215 -1 118 3 145 25 212 39 119 92 204 182 294 110 110 236 177 381 204 88 16
250 4 340 -24z m-1920 -471 c25 -24 25 -26 25 -215 0 -189 0 -191 -25 -215
l-24 -25 -671 0 -671 0 -24 25 c-25 24 -25 26 -25 215 0 189 0 191 25 215 l24
25 671 0 671 0 24 -25z" class="lineas"/>
<path d="M944 4545 c-195 -42 -341 -197 -374 -397 -40 -234 117 -470 355 -534
122 -33 270 -8 381 64 97 64 159 147 194 261 51 162 8 338 -112 466 -68 73
-150 120 -245 140 -82 18 -119 18 -199 0z m232 -179 c64 -30 123 -87 155 -152
20 -41 24 -64 24 -139 0 -78 -4 -97 -27 -140 -32 -60 -87 -114 -148 -146 -37
-20 -60 -24 -135 -24 -75 0 -98 4 -139 24 -147 72 -216 242 -163 398 20 56 79
130 131 162 87 54 207 61 302 17z"/>
<path d="M2800 4080 l0 -80 80 0 80 0 0 80 0 80 -80 0 -80 0 0 -80z"/>
<path d="M3120 4080 l0 -80 80 0 80 0 0 80 0 80 -80 0 -80 0 0 -80z"/>
<path d="M3440 4080 l0 -80 80 0 80 0 0 80 0 80 -80 0 -80 0 0 -80z"/>
<path d="M3760 4080 l0 -80 80 0 80 0 0 80 0 80 -80 0 -80 0 0 -80z"/>
<path d="M2000 2560 l0 -80 80 0 80 0 0 80 0 80 -80 0 -80 0 0 -80z"/>
<path d="M2320 2560 l0 -80 80 0 80 0 0 80 0 80 -80 0 -80 0 0 -80z"/>
<path d="M2640 2560 l0 -80 80 0 80 0 0 80 0 80 -80 0 -80 0 0 -80z"/>
<path d="M2960 2560 l0 -80 80 0 80 0 0 80 0 80 -80 0 -80 0 0 -80z"/>
<path d="M4208 1043 l-288 -288 -48 48 c-26 26 -52 47 -58 47 -13 0 -104 -93
-104 -106 0 -5 47 -56 105 -114 l105 -105 345 345 c190 190 345 350 345 355 0
13 -92 105 -105 105 -6 0 -139 -129 -297 -287z" class="mi-svg"/>
<path d="M1200 960 l0 -80 80 0 80 0 0 80 0 80 -80 0 -80 0 0 -80z"/>
<path d="M1520 960 l0 -80 80 0 80 0 0 80 0 80 -80 0 -80 0 0 -80z"/>
<path d="M1840 960 l0 -80 80 0 80 0 0 80 0 80 -80 0 -80 0 0 -80z"/>
<path d="M2160 960 l0 -80 80 0 80 0 0 80 0 80 -80 0 -80 0 0 -80z"/>
</g>
</svg>
