<?xml version="1.0" standalone="no"?>
<!DOCTYPE svg PUBLIC "-//W3C//DTD SVG 20010904//EN"
 "http://www.w3.org/TR/2001/REC-SVG-20010904/DTD/svg10.dtd">
<svg version="1.0" xmlns="http://www.w3.org/2000/svg"
 width="512.000000pt" height="512.000000pt" viewBox="0 0 512.000000 512.000000"
 preserveAspectRatio="xMidYMid meet">

<g transform="translate(0.000000,512.000000) scale(0.100000,-0.100000)"
fill="#000000" stroke="none">
<path d="M865 3175 l-25 -24 0 -391 0 -391 25 -24 c15 -16 36 -25 55 -25 19 0
40 9 55 25 l25 24 0 234 c0 270 6 301 75 371 70 73 164 86 216 30 l24 -26 5
-310 5 -310 24 -19 c30 -24 72 -24 102 0 24 19 24 20 29 293 l5 275 27 40 c40
61 90 88 165 88 55 0 66 -3 90 -28 l28 -27 5 -311 5 -311 24 -19 c32 -26 77
-24 106 6 l25 24 0 299 c0 354 -4 377 -80 453 -60 60 -132 84 -226 76 -66 -5
-163 -43 -201 -79 l-22 -20 -42 35 c-88 76 -212 87 -328 29 -34 -17 -61 -26
-61 -21 0 22 -50 59 -80 59 -19 0 -40 -9 -55 -25z"/>
<path d="M2945 3175 c-30 -29 -32 -74 -6 -106 19 -23 25 -24 201 -29 l182 -5
-198 -280 c-108 -154 -199 -288 -202 -298 -11 -40 36 -97 81 -97 7 0 45 17 86
37 68 35 82 38 155 38 75 0 86 -3 149 -37 79 -44 109 -47 142 -13 33 32 33 78
1 110 -51 50 -193 105 -274 105 -31 0 -43 4 -39 13 2 6 77 115 166 241 89 126
164 239 167 251 6 25 -10 63 -35 82 -12 9 -89 12 -284 13 l-268 0 -24 -25z"/>
<path d="M3915 3187 c-65 -22 -97 -43 -146 -94 -94 -98 -124 -181 -123 -338 0
-90 5 -121 24 -170 44 -113 116 -196 205 -237 70 -32 180 -32 250 0 89 41 161
124 205 237 33 83 34 261 3 346 -42 114 -112 196 -201 237 -65 29 -160 38
-217 19z m160 -170 c166 -94 163 -431 -5 -517 -123 -63 -250 44 -267 223 -15
165 79 317 197 317 19 0 53 -10 75 -23z"/>
<path d="M4505 3175 l-25 -24 0 -391 0 -391 25 -24 c15 -16 36 -25 55 -25 19
0 40 9 55 25 l25 24 0 234 c0 182 3 244 15 277 56 158 239 215 289 90 13 -34
16 -85 16 -321 l0 -280 25 -24 c32 -33 78 -33 111 0 l25 25 -3 308 c-3 298 -4
309 -27 359 -67 149 -235 202 -391 125 -33 -17 -60 -26 -60 -21 0 22 -50 59
-80 59 -19 0 -40 -9 -55 -25z"/>
<path d="M265 3177 c-67 -18 -142 -58 -187 -101 -31 -29 -38 -42 -38 -74 0
-82 77 -102 151 -39 44 38 119 67 171 67 59 0 148 -66 148 -110 0 -14 -13 -18
-79 -24 -212 -17 -338 -83 -402 -208 -76 -150 19 -331 191 -362 57 -10 150 11
233 52 l78 39 14 -28 c19 -36 62 -69 90 -69 12 0 34 9 49 21 31 25 36 82 9
112 -16 17 -19 50 -23 276 l-5 256 -27 46 c-72 122 -229 183 -373 146z m245
-507 l0 -69 -42 -29 c-79 -54 -149 -84 -201 -86 -43 -1 -52 3 -78 32 -16 18
-29 41 -29 53 0 46 50 108 105 129 39 15 159 38 208 39 l37 1 0 -70z"/>
<path d="M2370 3183 c-91 -19 -214 -95 -235 -147 -18 -41 -1 -84 38 -101 37
-15 62 -8 115 35 43 34 111 60 159 60 65 0 153 -64 153 -111 0 -15 -8 -19 -39
-19 -59 0 -204 -28 -265 -51 -159 -59 -246 -234 -185 -369 72 -159 241 -199
431 -101 l76 39 12 -29 c7 -16 24 -39 38 -49 75 -60 170 32 115 110 -16 22
-19 58 -23 275 -4 222 -7 254 -25 290 -48 97 -158 166 -274 171 -36 1 -77 0
-91 -3z m230 -513 l0 -69 -42 -29 c-62 -42 -139 -79 -181 -87 -69 -13 -127 30
-127 94 0 38 51 98 100 119 41 17 158 40 213 41 l37 1 0 -70z"/>
<path d="M3055 2266 c-121 -23 -195 -48 -210 -70 -22 -31 -18 -74 10 -101 30
-30 45 -31 148 -3 75 19 228 31 241 18 10 -11 -21 -118 -48 -164 -14 -25 -44
-66 -65 -90 -47 -54 -55 -75 -42 -109 15 -38 54 -60 91 -52 35 8 119 102 164
184 52 97 84 289 56 341 -23 43 -221 70 -345 46z"/>
<path d="M743 2220 c-51 -21 -59 -95 -13 -134 53 -44 211 -138 335 -197 323
-156 652 -233 1000 -233 201 0 333 16 535 65 195 48 503 169 538 212 35 43 -2
127 -56 127 -14 0 -70 -21 -126 -46 -213 -98 -483 -170 -726 -195 -427 -43
-951 96 -1354 360 -80 52 -94 56 -133 41z"/>
</g>
</svg>
