<?xml version="1.0" standalone="no"?>
<!DOCTYPE svg PUBLIC "-//W3C//DTD SVG 20010904//EN"
 "http://www.w3.org/TR/2001/REC-SVG-20010904/DTD/svg10.dtd">
<svg version="1.0" xmlns="http://www.w3.org/2000/svg"
 width="512.000000pt" height="512.000000pt" viewBox="0 0 512.000000 512.000000"
 preserveAspectRatio="xMidYMid meet">

<g transform="translate(0.000000,512.000000) scale(0.100000,-0.100000)"
fill="#000000" stroke="none">
<path d="M2505 4633 c-217 -18 -430 -75 -598 -160 -273 -138 -482 -400 -567
-710 -25 -90 -22 -125 13 -147 19 -12 627 -96 697 -96 32 0 66 41 74 89 10 67
54 147 108 197 159 149 465 152 599 7 63 -69 82 -121 87 -238 l4 -101 -103
-13 c-303 -37 -618 -120 -834 -221 -288 -132 -534 -380 -639 -643 -53 -132
-61 -181 -60 -352 0 -148 2 -167 28 -245 106 -318 298 -509 589 -581 121 -30
308 -36 437 -15 233 39 395 118 610 295 l85 69 95 -92 c132 -127 274 -236 310
-236 21 0 94 50 297 205 147 113 276 215 286 227 30 35 21 69 -34 133 -72 84
-144 196 -169 263 -38 102 -43 245 -30 877 13 625 11 652 -36 795 -51 153
-136 282 -266 406 -233 221 -575 321 -983 287z m368 -168 c384 -58 665 -303
749 -654 20 -85 20 -94 8 -626 -13 -553 -9 -769 15 -887 17 -82 73 -199 142
-295 l52 -73 -42 -33 c-23 -19 -113 -89 -200 -156 l-158 -122 -77 63 c-42 34
-120 106 -173 159 -106 107 -130 123 -163 115 -12 -3 -86 -59 -165 -124 -260
-217 -470 -294 -755 -279 -205 11 -336 65 -457 186 -206 208 -264 527 -147
809 87 210 287 415 517 531 207 105 557 195 901 232 161 18 160 16 160 196 0
91 -5 159 -15 196 -65 250 -277 393 -555 374 -236 -16 -407 -121 -496 -303
-21 -43 -39 -81 -40 -83 -3 -3 -396 45 -446 55 l-27 5 25 67 c95 253 291 454
544 557 113 46 247 76 435 98 79 10 280 5 368 -8z"/>
<path d="M2830 3033 c-19 -2 -83 -13 -142 -23 -377 -71 -615 -247 -683 -506
-43 -164 7 -338 134 -465 117 -116 252 -158 409 -127 246 49 399 205 468 477
34 132 47 306 34 459 -10 123 -19 156 -49 179 -15 12 -92 14 -171 6z m64 -245
c7 -95 -8 -275 -30 -362 -40 -153 -118 -262 -228 -316 -150 -74 -285 -59 -387
44 -67 65 -94 134 -94 236 0 71 4 94 26 140 69 145 233 253 469 309 83 20 219
40 231 34 3 -1 9 -40 13 -85z"/>
<path d="M4545 1674 c-124 -28 -413 -162 -460 -214 -25 -28 -22 -78 6 -104 21
-21 40 -24 179 -34 169 -13 298 -39 339 -69 47 -35 56 -67 56 -198 0 -80 -6
-151 -19 -212 -18 -86 -18 -93 -3 -117 19 -29 55 -41 91 -32 29 7 152 129 218
216 103 135 151 288 164 522 9 145 4 162 -46 188 -113 58 -384 86 -525 54z
m365 -166 l45 -14 -2 -75 c-4 -149 -32 -261 -90 -356 l-28 -48 -6 90 c-6 107
-31 182 -77 235 -47 56 -115 85 -287 125 l-30 7 35 15 c74 32 153 43 275 39
66 -2 140 -11 165 -18z"/>
<path d="M30 1552 c-56 -56 -38 -90 125 -240 393 -360 986 -644 1620 -776 437
-90 923 -114 1273 -62 428 64 840 224 1212 472 162 107 200 142 200 183 0 39
-38 81 -73 81 -14 0 -44 -7 -68 -15 -433 -154 -1462 -279 -2004 -245 -629 39
-1352 232 -2035 542 -96 44 -185 82 -197 85 -16 4 -31 -4 -53 -25z m829 -463
c496 -171 992 -273 1449 -299 363 -21 955 23 1441 106 79 14 146 23 148 21 2
-3 -52 -29 -119 -60 -441 -198 -864 -277 -1326 -248 -578 36 -1080 164 -1536
392 -121 61 -306 166 -306 174 0 2 30 -7 67 -21 36 -14 118 -43 182 -65z"/>
</g>
</svg>
