<?xml version="1.0" standalone="no"?>
<!DOCTYPE svg PUBLIC "-//W3C//DTD SVG 20010904//EN"
 "http://www.w3.org/TR/2001/REC-SVG-20010904/DTD/svg10.dtd">
<svg version="1.0" xmlns="http://www.w3.org/2000/svg"
 width="512.000000pt" height="512.000000pt" viewBox="0 0 512.000000 512.000000"
 preserveAspectRatio="xMidYMid meet">

<g transform="translate(0.000000,512.000000) scale(0.100000,-0.100000)"
fill="#ffffff" stroke="none">
<path d="M1647 5100 c-72 -23 -156 -77 -192 -125 l-27 -35 -94 0 c-103 0 -136
-9 -178 -48 -48 -45 -66 -96 -66 -192 0 -53 -5 -91 -12 -98 -26 -26 -60 -12
-128 51 -131 124 -224 114 -370 -40 -130 -135 -134 -220 -14 -343 65 -67 79
-101 52 -128 -7 -7 -42 -12 -87 -12 -96 0 -142 -13 -187 -52 -55 -48 -67 -81
-72 -194 -6 -132 12 -197 67 -247 48 -44 93 -57 192 -57 123 0 132 -35 35
-139 -118 -126 -114 -211 16 -348 143 -149 239 -158 368 -36 68 63 102 77 128
51 7 -7 12 -45 12 -97 0 -97 18 -148 66 -193 39 -36 74 -48 140 -48 l54 0 0
-305 0 -305 -85 0 -85 0 0 75 c0 116 -35 165 -117 165 -38 0 -54 -10 -186
-113 -403 -315 -437 -343 -453 -375 -17 -36 -13 -84 9 -113 7 -9 142 -118 300
-242 272 -215 290 -227 330 -227 82 0 117 49 117 165 l0 75 85 0 85 0 0 -591
c0 -503 2 -600 16 -660 29 -128 126 -239 254 -292 l55 -22 1180 0 1180 0 58
23 c109 44 194 131 241 246 19 48 21 74 24 401 3 346 3 351 -18 378 -24 31
-73 37 -106 13 -17 -13 -20 -31 -24 -178 l-5 -163 -412 -3 -413 -2 0 22 c0 37
-42 99 -80 119 -32 18 -65 19 -443 19 -361 0 -413 -2 -444 -17 -39 -18 -70
-61 -79 -111 l-6 -32 -412 2 -411 3 -3 422 -2 423 340 0 c372 0 392 3 427 56
16 25 18 52 18 239 0 187 -2 214 -18 239 -35 53 -55 56 -427 56 l-340 0 0 309
0 309 30 12 c34 14 76 60 92 99 6 14 13 68 17 120 5 73 10 96 23 105 23 14 27
8 39 -63 13 -85 48 -176 91 -241 21 -30 297 -314 615 -631 l578 -577 85 -40
c107 -51 184 -66 303 -60 109 6 212 39 296 94 87 57 272 249 304 315 58 118
59 233 2 356 -35 77 -177 218 -260 259 -55 27 -69 29 -170 29 -101 0 -115 -2
-169 -29 -32 -16 -89 -58 -127 -94 l-69 -65 -55 52 c-61 58 -92 65 -130 26
-52 -52 -52 -53 291 -396 316 -316 316 -317 293 -332 -61 -40 -125 -60 -211
-65 -110 -6 -195 15 -276 68 -34 23 -279 260 -618 601 -518 521 -563 569 -588
627 -39 89 -52 176 -38 258 11 65 63 194 79 194 4 0 195 -187 423 -415 377
-377 418 -415 447 -415 43 0 73 30 73 73 0 28 -18 50 -155 187 l-154 154 64
67 c42 44 77 92 98 136 29 62 32 77 32 163 0 86 -3 101 -31 161 -37 77 -139
190 -220 244 l-54 36 0 95 c0 107 -16 152 -70 197 -40 34 -89 47 -181 47 -82
0 -99 9 -99 50 0 18 16 41 51 75 67 66 92 115 91 181 -1 70 -16 95 -119 195
-107 105 -149 123 -238 98 -26 -7 -61 -33 -105 -75 -67 -65 -101 -79 -128 -52
-7 7 -12 41 -12 82 0 82 -14 139 -43 180 -20 28 -20 29 -1 43 10 8 37 24 59
36 38 21 53 22 254 22 l213 0 32 -115 c37 -134 51 -162 103 -211 81 -78 50
-74 598 -74 548 0 517 -4 598 74 52 48 73 93 106 219 l28 107 192 3 c111 1
209 -2 231 -8 64 -17 130 -69 164 -130 l31 -55 3 -402 3 -403 -21 0 c-34 0
-78 -28 -95 -60 -10 -19 -15 -57 -15 -110 l0 -80 -526 0 c-473 0 -529 -2 -554
-17 -16 -9 -33 -27 -39 -40 -7 -15 -11 -106 -11 -239 l0 -216 34 -34 34 -34
531 0 531 0 0 -82 c0 -107 19 -142 85 -160 l45 -12 0 -778 c0 -765 0 -778 20
-798 30 -30 83 -27 109 6 21 27 21 33 21 853 l1 826 229 180 c126 98 233 188
239 200 41 85 30 101 -234 309 l-230 182 -5 464 c-5 442 -6 467 -26 516 -47
115 -133 202 -241 246 l-58 23 -1165 2 c-1115 2 -1167 1 -1223 -17z m1783
-136 c0 -22 -44 -173 -56 -192 -8 -13 -29 -32 -47 -42 -30 -19 -53 -20 -472
-20 -419 0 -442 1 -472 20 -18 10 -39 29 -47 42 -12 19 -56 170 -56 192 0 3
259 6 575 6 316 0 575 -3 575 -6z m-1950 -193 c5 -11 10 -56 10 -100 0 -90 10
-124 48 -164 60 -64 152 -84 229 -52 20 9 65 42 99 75 34 33 68 60 75 60 7 0
46 -33 86 -73 57 -57 72 -78 67 -93 -4 -10 -33 -47 -65 -80 -67 -71 -79 -96
-79 -164 0 -128 83 -199 233 -200 110 0 117 -5 117 -89 l0 -68 -61 -6 c-105
-9 -176 -53 -309 -187 -123 -124 -176 -202 -206 -301 -17 -57 -19 -59 -51 -59
-47 0 -92 -22 -130 -61 -43 -46 -53 -77 -53 -170 0 -119 0 -119 -123 -119 -67
0 -107 4 -115 12 -7 7 -12 44 -12 95 0 122 -30 182 -112 224 -41 21 -120 25
-163 9 -14 -5 -57 -39 -95 -75 -38 -36 -75 -65 -82 -65 -17 0 -158 141 -158
159 0 7 27 41 60 75 33 34 66 79 75 99 20 49 19 113 -4 162 -38 82 -100 115
-221 115 -110 0 -120 11 -120 123 0 119 7 127 118 127 95 0 149 18 189 61 51
56 67 147 38 216 -9 20 -42 65 -75 99 -33 34 -60 70 -60 79 0 22 133 155 155
155 9 0 44 -26 78 -59 76 -72 112 -91 172 -91 133 0 204 84 205 241 0 52 5 90
12 97 8 8 48 12 115 12 91 0 103 -2 113 -19z m3110 -1274 c41 -33 76 -62 77
-66 2 -6 -410 -333 -428 -339 -5 -2 -9 20 -9 48 0 29 -7 67 -16 85 -31 66 -25
65 -598 65 l-516 0 0 140 0 140 510 0 c545 0 551 1 595 49 14 17 20 41 23 91
l4 69 142 -112 c77 -61 175 -138 216 -170z m-2202 153 c54 -25 171 -141 197
-195 48 -104 26 -203 -69 -302 l-61 -64 -213 214 -213 213 68 65 c38 36 85 70
104 76 56 18 139 15 187 -7z m1260 -1260 c54 -25 161 -130 193 -190 31 -61 32
-158 2 -216 -25 -47 -110 -144 -127 -144 -6 0 -106 94 -221 210 l-210 210 50
50 c95 97 211 126 313 80z m-2618 -246 c0 -62 2 -68 34 -100 l34 -34 516 0
516 0 0 -145 0 -145 -515 0 -515 0 -32 -29 c-30 -27 -33 -35 -38 -102 l-5 -72
-215 170 c-118 94 -215 174 -215 178 0 9 415 343 428 344 4 1 7 -29 7 -65z
m2200 -1509 l0 -95 -375 0 -375 0 0 95 0 95 375 0 375 0 0 -95z m-900 -90 c0
-43 26 -91 66 -121 l37 -29 422 0 422 0 37 29 c40 30 66 78 66 121 l0 25 416
0 417 0 -5 -113 c-4 -104 -7 -118 -34 -168 -33 -59 -99 -111 -162 -129 -51
-14 -2263 -14 -2314 0 -68 19 -130 70 -163 134 -27 53 -30 71 -34 168 l-3 108
416 0 416 0 0 -25z"/>
<path d="M1243 4366 c-188 -46 -344 -202 -388 -387 -97 -415 305 -763 705
-610 112 43 253 180 282 274 10 33 9 41 -9 65 -41 55 -100 42 -141 -30 -38
-68 -108 -133 -180 -166 -48 -23 -71 -27 -147 -27 -77 0 -99 4 -147 27 -79 37
-120 70 -162 131 -49 73 -70 153 -63 242 12 156 105 274 258 325 173 59 365
-25 453 -197 26 -53 40 -63 86 -63 30 0 70 39 70 68 0 36 -68 149 -126 207
-125 128 -318 183 -491 141z"/>
<path d="M1287 4075 c-143 -53 -201 -221 -119 -344 130 -194 424 -108 426 124
1 159 -159 274 -307 220z m129 -159 c56 -47 20 -146 -52 -146 -34 0 -84 51
-84 85 0 34 50 85 84 85 14 0 37 -11 52 -24z"/>
<path d="M3685 4785 c-14 -13 -25 -36 -25 -50 0 -14 11 -37 25 -50 13 -14 36
-25 50 -25 14 0 37 11 50 25 14 13 25 36 25 50 0 14 -11 37 -25 50 -13 14 -36
25 -50 25 -14 0 -37 -11 -50 -25z"/>
<path d="M3915 4785 c-14 -13 -25 -36 -25 -50 0 -14 11 -37 25 -50 13 -14 36
-25 50 -25 14 0 37 11 50 25 14 13 25 36 25 50 0 14 -11 37 -25 50 -13 14 -36
25 -50 25 -14 0 -37 -11 -50 -25z"/>
</g>
</svg>
