<?xml version="1.0" standalone="no"?>
<!DOCTYPE svg PUBLIC "-//W3C//DTD SVG 20010904//EN"
 "http://www.w3.org/TR/2001/REC-SVG-20010904/DTD/svg10.dtd">
<svg version="1.0" xmlns="http://www.w3.org/2000/svg"
 width="512.000000pt" height="512.000000pt" viewBox="0 0 512.000000 512.000000"
 preserveAspectRatio="xMidYMid meet">

<g transform="translate(0.000000,512.000000) scale(0.100000,-0.100000)"
fill="#ffffff" stroke="none">
<path d="M2330 5110 c-890 -86 -1671 -622 -2060 -1415 -161 -327 -236 -606
-262 -973 -24 -335 30 -719 147 -1038 51 -141 183 -402 263 -522 253 -380 599
-690 991 -886 556 -280 1189 -347 1792 -192 429 110 815 328 1138 641 462 448
727 1022 773 1672 19 267 -6 528 -77 809 -45 177 -91 298 -185 489 -133 268
-290 484 -509 698 -387 377 -871 617 -1406 698 -151 23 -462 32 -605 19z m343
-1015 c111 -17 225 -52 312 -98 79 -41 194 -156 228 -227 60 -124 60 -128 67
-720 4 -339 10 -556 17 -575 18 -52 49 -108 97 -172 25 -34 48 -73 51 -86 9
-33 -20 -64 -193 -213 -129 -111 -148 -124 -182 -124 -31 0 -47 8 -90 47 -28
25 -79 83 -112 127 -34 45 -63 83 -64 85 -2 2 -33 -23 -68 -57 -112 -105 -223
-169 -338 -197 -100 -25 -299 -30 -388 -11 -220 46 -373 195 -427 414 -25 102
-22 276 6 377 98 351 398 525 986 570 44 3 95 8 113 11 l34 5 -4 132 c-3 111
-7 138 -25 173 -44 82 -136 134 -239 134 -71 0 -166 -35 -218 -81 -48 -42 -74
-84 -96 -154 -17 -54 -37 -75 -74 -75 -17 0 -112 10 -210 22 -151 18 -183 25
-205 44 -25 22 -25 22 -12 85 18 91 64 194 116 264 175 236 544 356 918 300z
m1352 -2193 c69 -24 88 -61 81 -157 -8 -96 -30 -175 -75 -271 -42 -88 -129
-190 -171 -199 -32 -8 -80 27 -80 58 0 12 18 76 41 142 22 66 43 143 46 171 5
47 4 51 -18 57 -39 11 -127 8 -239 -8 -100 -14 -106 -14 -130 3 -15 12 -26 31
-28 49 -2 24 4 37 35 63 45 40 143 86 209 98 86 17 273 13 329 -6z m-2710
-207 c368 -200 621 -298 895 -347 113 -20 447 -17 590 5 232 36 465 100 696
192 77 30 154 55 172 55 47 0 82 -38 82 -88 0 -46 -28 -76 -142 -150 -244
-158 -561 -276 -883 -328 -164 -27 -416 -25 -562 4 -270 54 -551 187 -820 389
-139 104 -314 254 -325 278 -23 52 26 112 82 99 14 -3 111 -52 215 -109z"/>
<path d="M2550 2924 c-160 -24 -228 -52 -304 -124 -78 -74 -100 -129 -101
-255 0 -124 18 -177 80 -234 133 -122 339 -51 438 151 47 98 57 153 57 323 l0
145 -72 -1 c-40 -1 -84 -3 -98 -5z"/>
</g>
</svg>
